<svg width="194" height="61" viewBox="0 0 194 61" fill="none" xmlns="http://www.w3.org/2000/svg">
<path d="M13.5352 25.9023H2.26562V20.4727H30.9961V25.9023H19.7266V51H13.5352V25.9023ZM88.9453 35.6484C88.9453 33.3438 89.3685 31.2344 90.2148 29.3203C91.0612 27.4062 92.2461 25.7656 93.7695 24.3984C95.306 23.0182 97.1419 21.9505 99.2773 21.1953C101.426 20.4401 103.802 20.0625 106.406 20.0625C108.997 20.0625 111.367 20.4401 113.516 21.1953C115.664 21.9505 117.5 23.0182 119.023 24.3984C120.56 25.7656 121.751 27.4062 122.598 29.3203C123.444 31.2344 123.867 33.3438 123.867 35.6484C123.867 37.9661 123.444 40.0951 122.598 42.0352C121.751 43.9622 120.56 45.6224 119.023 47.0156C117.5 48.4089 115.664 49.4961 113.516 50.2773C111.367 51.0456 108.997 51.4297 106.406 51.4297C103.802 51.4297 101.426 51.0456 99.2773 50.2773C97.1419 49.4961 95.306 48.4089 93.7695 47.0156C92.2461 45.6224 91.0612 43.9622 90.2148 42.0352C89.3685 40.0951 88.9453 37.9661 88.9453 35.6484ZM95.1367 35.6484C95.1367 37.224 95.4167 38.6432 95.9766 39.9062C96.5495 41.1693 97.3372 42.25 98.3398 43.1484C99.3555 44.0339 100.547 44.7174 101.914 45.1992C103.294 45.681 104.792 45.9219 106.406 45.9219C108.021 45.9219 109.512 45.681 110.879 45.1992C112.259 44.7174 113.451 44.0339 114.453 43.1484C115.456 42.25 116.243 41.1693 116.816 39.9062C117.389 38.6432 117.676 37.224 117.676 35.6484C117.676 34.0729 117.389 32.6602 116.816 31.4102C116.243 30.1602 115.456 29.1055 114.453 28.2461C113.451 27.3737 112.259 26.7096 110.879 26.2539C109.512 25.7982 108.021 25.5703 106.406 25.5703C104.792 25.5703 103.294 25.7982 101.914 26.2539C100.547 26.7096 99.3555 27.3737 98.3398 28.2461C97.3372 29.1055 96.5495 30.1602 95.9766 31.4102C95.4167 32.6602 95.1367 34.0729 95.1367 35.6484ZM130.02 27.9531H135.801V29.9062C137.337 29.0339 138.802 28.4219 140.195 28.0703C141.602 27.7188 142.975 27.543 144.316 27.543C146.074 27.543 147.702 27.8034 149.199 28.3242C150.697 28.832 151.992 29.5938 153.086 30.6094C154.18 31.625 155.033 32.8945 155.645 34.418C156.27 35.9284 156.582 37.6797 156.582 39.6719V51H150.82V40.6094C150.82 39.3464 150.638 38.2201 150.273 37.2305C149.922 36.2279 149.408 35.388 148.73 34.7109C148.066 34.0208 147.253 33.5 146.289 33.1484C145.339 32.7839 144.271 32.6016 143.086 32.6016C142.461 32.6016 141.816 32.6667 141.152 32.7969C140.501 32.9271 139.857 33.1159 139.219 33.3633C138.594 33.5977 137.988 33.8971 137.402 34.2617C136.816 34.6133 136.283 35.0169 135.801 35.4727V51H130.02V27.9531ZM162.598 39.3984C162.598 37.8359 162.917 36.3451 163.555 34.9258C164.193 33.4935 165.111 32.2305 166.309 31.1367C167.507 30.043 168.971 29.1706 170.703 28.5195C172.448 27.8685 174.427 27.543 176.641 27.543C178.841 27.543 180.82 27.875 182.578 28.5391C184.349 29.1901 185.846 30.0885 187.07 31.2344C188.307 32.3802 189.251 33.7279 189.902 35.2773C190.566 36.8268 190.898 38.487 190.898 40.2578C190.898 40.4792 190.892 40.7201 190.879 40.9805C190.879 41.2279 190.866 41.4557 190.84 41.6641H169.043C169.29 42.3542 169.688 42.9857 170.234 43.5586C170.794 44.1315 171.491 44.6263 172.324 45.043C173.158 45.4596 174.121 45.7852 175.215 46.0195C176.309 46.2409 177.52 46.3516 178.848 46.3516C180.176 46.3516 181.497 46.2148 182.812 45.9414C184.128 45.6549 185.384 45.2969 186.582 44.8672L188.535 49.2812C187.78 49.6328 187.012 49.9453 186.23 50.2188C185.462 50.4792 184.655 50.7005 183.809 50.8828C182.975 51.0521 182.096 51.1823 181.172 51.2734C180.26 51.3646 179.297 51.4102 178.281 51.4102C175.69 51.4102 173.418 51.0977 171.465 50.4727C169.512 49.8477 167.878 48.9948 166.562 47.9141C165.247 46.8333 164.258 45.5638 163.594 44.1055C162.93 42.6471 162.598 41.0781 162.598 39.3984ZM184.766 37.1523C184.557 36.5143 184.232 35.9219 183.789 35.375C183.359 34.8151 182.819 34.3333 182.168 33.9297C181.517 33.513 180.762 33.1875 179.902 32.9531C179.043 32.7188 178.099 32.6016 177.07 32.6016C175.977 32.6016 174.98 32.7253 174.082 32.9727C173.184 33.2201 172.396 33.5521 171.719 33.9688C171.042 34.3854 170.475 34.8672 170.02 35.4141C169.577 35.9609 169.251 36.5404 169.043 37.1523H184.766Z" fill="#FF483D"/>
<path d="M59.5152 18.866C60.6307 18.5193 61.5657 18.0947 62.2928 17.7332C62.8876 17.4375 63.5773 17.82 63.6292 18.4821C63.663 18.9124 63.4989 19.3345 63.1835 19.6291L62.8998 19.894C62.0067 20.7919 61.405 21.3124 60.6382 21.8304C60.119 22.1811 59.5225 22.4212 58.8966 22.4502C58.619 22.463 58.3279 22.456 57.9495 22.4298C56.5191 22.4262 55.7231 22.5522 54.3117 23.0238C52.437 23.9394 51.4775 24.5429 49.9141 25.811C49.2004 25.9632 48.7645 25.9071 48.003 25.948C47.0331 26.1242 46.5089 26.3015 45.6085 26.7705C44.7081 27.2395 44.6165 27.396 43.5363 27.8899C43.1236 28.0983 42.7628 28.195 42.3473 28.2488C41.7903 28.3209 41.3137 27.8615 41.2988 27.3001L41.1878 23.1152V19.9625L41.326 16.7413L38.9775 16.4672L38.5631 19.2086L37.7572 23.1152C37.7572 23.1152 37.4579 24.4631 37.3428 26.7705L37.0435 29.6718C36.9431 30.7936 37.009 31.4137 37.3198 32.5275C37.5448 33.0445 37.8329 33.179 38.5861 33.19C40.6653 33.543 41.8423 33.5959 43.9738 33.3042C46.2482 32.9872 47.4533 32.7065 49.5917 31.8878C50.7622 31.5524 51.3533 31.2816 52.3316 30.6999C52.9721 30.3453 53.4605 30.0969 54.0013 29.8744C54.8701 29.5171 55.8561 29.5176 56.5173 30.1848C56.5903 30.2585 56.6638 30.3362 56.7373 30.4173C57.6568 31.4321 58.114 32.7829 58.2028 34.1495C58.2687 35.1622 59.1585 36 60.1734 36H77.4519C77.5786 36 77.6814 35.8972 77.6814 35.7705C77.6814 35.5503 77.9613 35.4565 78.094 35.6321L78.2733 35.8693C78.3355 35.9516 78.4328 36 78.536 36H83V35.7487V32.455C83 29.0432 82.7453 25.4441 80.7436 22.6811C80.4665 22.266 80.2496 22.0228 79.7075 21.5617L78.7635 21.082C77.8835 20.8218 77.0975 20.8058 75.6783 20.785C74.7087 20.543 74.2592 20.3293 73.6291 19.8026C72.4799 19.1105 71.8642 18.6894 70.9122 17.7694C70.3243 17.0427 70.141 16.584 69.8992 15.7362C70.1317 16.1965 70.2955 16.4298 70.728 16.7413C71.4756 17.2713 71.9347 17.4293 72.8693 17.3125C73.5589 17.1139 73.8866 16.9516 74.2968 16.5129C73.8161 16.463 73.5175 16.3731 73.0951 16.0977C72.9427 15.9983 72.8067 15.8712 72.7349 15.704C72.4647 15.0746 72.3454 13.7919 72.3167 13.1774C72.2016 10.7101 72.2604 10.5647 72.4318 7.99157C72.4537 6.78151 72.3934 6.08142 72.1325 4.79321C71.9964 3.71773 71.7988 3.14471 71.1655 2.18884C70.6356 1.31324 70.2119 0.898352 69.1163 0.361208C68.3537 0.0249384 67.891 -0.0628734 66.9751 0.0413722C65.9748 0.329834 65.5257 0.664422 64.9029 1.54917C63.9182 1.26955 63.341 1.22066 62.2551 1.3664C60.6793 1.50539 59.858 1.79206 58.5021 2.66859C58.48 2.67576 57.5407 3.41384 56.9595 4.03931C55.9353 5.14161 55.4935 6.65105 55.3518 8.14907C55.3006 8.68949 55.2845 9.21734 55.2973 9.80862C55.3131 10.534 55.5433 11.2533 56.0616 11.7611C56.1312 11.8293 55.8178 13.8121 55.8409 15.1056C55.8442 15.2926 55.9513 15.4552 56.138 15.4661C56.4126 15.4823 56.6832 15.6669 56.6832 15.942V16.2016C56.6832 16.3438 56.7263 16.4892 56.838 16.5771C56.8831 16.6126 56.9297 16.6411 56.9813 16.666C57.1385 16.7417 57.2588 16.8845 57.2588 17.0589C57.2588 17.2746 57.4337 17.4496 57.6495 17.4496H57.7193C57.9495 17.4496 58.1107 18.4776 58.1107 18.4776C58.2238 18.7002 58.331 18.8104 58.4889 18.8886C58.6438 18.9653 58.82 18.989 58.9927 18.981C59.184 18.9721 59.3249 18.9378 59.5152 18.866Z" fill="#FF483D"/>
<circle cx="41.5" cy="12.5" r="5.5" fill="#FF483D"/>
</svg>
